<svg xmlns="http://www.w3.org/2000/svg" xmlns:svg="http://www.w3.org/2000/svg" id="svg1416" width="22mm" height="22mm" version="1.1" viewBox="0 0 22 22"><metadata id="metadata1413"/><g id="layer1" transform="translate(1,1)"><g id="g1446"><path id="rect1420" d="m 0,9 h 5 v 2 H 0 Z m 4.1339746,9.160254 2.5,-4.330127 1.7320508,1 -2.5,4.330127 z m 10.0000004,1 -2.5,-4.330127 1.73205,-1 2.5,4.330127 z M 20,11 H 15 V 9 h 5 z m -4.133975,-9.160254 -2.5,4.330127 -1.73205,-1 2.5,-4.33012704 z m -9.9999996,-1.00000004 2.5,4.33012704 -1.7320508,1 -2.5,-4.330127 z" style="fill:#0065bd;stroke:none;stroke-width:.645497;stroke-linecap:round;stroke-opacity:.999017;stop-color:#000"/><path id="rect1422" d="m 5,9 h 2 v 2 H 5 Z m 1.6339746,4.830127 1,-1.732051 1.7320508,1 -1,1.732051 z m 5.0000004,1 -1,-1.732051 1.73205,-1 1,1.732051 z M 15,11 H 13 V 9 h 2 z m -1.633975,-4.830127 -1,1.7320508 -1.73205,-1 1,-1.7320508 z m -4.9999996,-1 1,1.7320508 -1.7320508,1 -1,-1.7320508 z" style="fill:#a2ad00;stroke:none;stroke-width:1;stroke-linecap:round;stroke-opacity:.999017;stop-color:#000"/></g><path style="fill:none;stroke:#a2ad00;stroke-width:.264583px;stroke-linecap:butt;stroke-linejoin:miter;stroke-opacity:1" id="path1474" d="M 8.4999998,12.598076 C 9.2505194,11.298138 8.3580814,10 6.9999999,10"/><path style="fill:none;stroke:#a2ad00;stroke-width:.264583px;stroke-linecap:butt;stroke-linejoin:miter;stroke-opacity:1" id="path1476" d="M 11.5,7.4019237 C 10.896857,8.4465972 11.408868,10 13,10"/><path style="fill:none;stroke:#a2ad00;stroke-width:.264583px;stroke-linecap:butt;stroke-linejoin:miter;stroke-opacity:1" id="path1478" d="m 13,10 c -1.789722,0 -2.212988,1.363145 -1.5,2.598076 C 10.795042,11.377052 8.9588021,10 7,10"/><path style="fill:none;stroke:#a2ad00;stroke-width:.264583px;stroke-linecap:butt;stroke-linejoin:miter;stroke-opacity:1" id="path1480" d="M 8.4999998,7.4019237 C 9.3351365,8.6478071 11.53793,10 13,10"/><rect style="fill:none;stroke:none;stroke-width:.271116;stop-color:#000" id="rect848" width="22" height="22" x="-1" y="-1"/></g></svg>