<svg xmlns="http://www.w3.org/2000/svg" xmlns:svg="http://www.w3.org/2000/svg" id="svg2" width="91.553" height="28" version="1.1" viewBox="0 0 91.553 28" xml:space="preserve"><metadata id="metadata8"/><g id="g10" transform="matrix(1.25,0,0,-1.25,-171.04145,112.34873)"><path style="fill:#040606;fill-opacity:1;fill-rule:nonzero;stroke:#fff;stroke-width:0;stroke-linecap:round;stroke-linejoin:round;stroke-miterlimit:4;stroke-dasharray:none;stroke-opacity:1;paint-order:stroke fill markers" id="path14" d="m 138.70464,75.664014 c 0.6992,-1.007695 1.91256,-1.562944 2.98196,-1.562944 2.38564,0 3.51673,1.912572 3.51673,3.681167 0,1.912559 -1.33676,3.640034 -3.4756,3.640034 -1.11053,0 -2.50893,-0.678538 -3.02309,-1.953595 z m 0,7.239033 v -1.377944 c 0.74033,1.069449 2.03591,1.62474 3.26988,1.62474 2.96147,0 5.14144,-2.385599 5.14144,-5.408685 0,-2.714755 -2.03601,-5.36766 -5.18256,-5.36766 -1.21336,0 -2.40621,0.514157 -3.22876,1.357336 v -6.251849 h -1.87148 v 15.424062 h 1.87148"/><path style="fill:#040606;fill-opacity:1;fill-rule:nonzero;stroke:#fff;stroke-width:0;stroke-linecap:round;stroke-linejoin:round;stroke-miterlimit:4;stroke-dasharray:none;stroke-opacity:1;paint-order:stroke fill markers" id="path16" d="m 151.16761,81.196179 c 0.61686,1.110581 1.54235,1.953664 2.65292,1.953664 0.4319,0 0.71983,-0.04113 1.11059,-0.1234 l -0.34963,-1.994838 c -0.3085,0.143964 -0.57585,0.205706 -0.96661,0.205706 -1.04875,0 -1.80971,-0.617032 -2.44727,-1.727559 v -6.88946 h -1.87148 v 10.282754 h 1.87148 v -1.706869"/><path style="fill:#040606;fill-opacity:1;fill-rule:nonzero;stroke:#fff;stroke-width:0;stroke-linecap:round;stroke-linejoin:round;stroke-miterlimit:4;stroke-dasharray:none;stroke-opacity:1;paint-order:stroke fill markers" id="path18" d="m 157.78984,78.789932 h 5.84056 c -0.0823,1.460155 -1.1927,2.755875 -2.73518,2.755875 -1.66587,0 -2.73519,-1.2134 -3.10538,-2.755875 z M 157.64587,77.2887 c 0.12347,-1.768595 1.33668,-3.31107 3.31105,-3.31107 1.35723,0 2.44726,0.493537 3.06424,1.665763 l 1.35724,-0.863731 c -1.02817,-1.645209 -2.42669,-2.406164 -4.50374,-2.406164 -3.26991,0 -5.10019,2.385653 -5.10019,5.388118 0,3.064327 2.2416,5.388227 5.10019,5.388227 2.71461,0 4.68898,-2.036026 4.68898,-4.791695 0,-0.349627 -0.0412,-0.802196 -0.0824,-1.069448 h -7.83536"/><path style="fill:#040606;fill-opacity:1;fill-rule:nonzero;stroke:#fff;stroke-width:0;stroke-linecap:round;stroke-linejoin:round;stroke-miterlimit:4;stroke-dasharray:none;stroke-opacity:1;paint-order:stroke fill markers" id="path20" d="m 175.39434,72.373498 c -4.29808,0 -7.73266,2.899811 -7.73266,7.44475 0,4.257079 3.47556,7.444724 7.73266,7.444724 1.41908,0 2.73518,-0.411327 3.86633,-1.110582 l -0.92548,-1.521771 c -0.86365,0.534587 -1.8714,0.863648 -2.94085,0.863648 -3.24935,0 -5.6349,-2.385557 -5.6349,-5.676019 0,-3.496111 2.34443,-5.676087 5.6349,-5.676087 1.13116,0 2.18004,0.329006 3.18765,1.007694 l 1.04888,-1.460113 c -1.23384,-0.843109 -2.69405,-1.316244 -4.23653,-1.316244"/><path style="fill:#040606;fill-opacity:1;fill-rule:nonzero;stroke:#fff;stroke-width:0;stroke-linecap:round;stroke-linejoin:round;stroke-miterlimit:4;stroke-dasharray:none;stroke-opacity:1;paint-order:stroke fill markers" id="path22" d="m 182.24306,72.620294 h 1.97437 v 14.395881 h -1.97437 z"/><path style="fill:#040606;fill-opacity:1;fill-rule:nonzero;stroke:#fff;stroke-width:0;stroke-linecap:round;stroke-linejoin:round;stroke-miterlimit:4;stroke-dasharray:none;stroke-opacity:1;paint-order:stroke fill markers" id="path24" d="m 194.58931,72.373498 c -4.29809,0 -7.73253,2.899811 -7.73253,7.44475 0,4.257079 3.47544,7.444724 7.73253,7.444724 1.41907,0 2.73519,-0.411327 3.86632,-1.110582 l -0.92548,-1.521771 c -0.86364,0.534587 -1.87138,0.863648 -2.94084,0.863648 -3.24934,0 -5.6349,-2.385557 -5.6349,-5.676019 0,-3.496111 2.34442,-5.676087 5.6349,-5.676087 1.13115,0 2.18003,0.329006 3.18764,1.007694 l 1.04888,-1.460113 c -1.23384,-0.843109 -2.69418,-1.316244 -4.23652,-1.316244"/><path style="fill:#040606;fill-opacity:1;fill-rule:nonzero;stroke:#fff;stroke-width:0;stroke-linecap:round;stroke-linejoin:round;stroke-miterlimit:4;stroke-dasharray:none;stroke-opacity:1;paint-order:stroke fill markers" id="path26" d="m 201.43803,72.620294 v 14.395881 h 8.63772 v -1.768704 h -6.66334 v -4.318696 h 6.66334 V 79.16018 h -6.66334 v -4.771223 h 6.66334 v -1.768663 h -8.63772"/><text style="font-style:normal;font-weight:400;font-size:18.5104px;line-height:1.25;font-family:sans-serif;opacity:1;fill:#000;fill-opacity:0;stroke:none;stroke-width:.462756" id="text882" x="135.206" y="-72.562" transform="scale(1,-1)" xml:space="preserve"><tspan id="tspan880" x="135.206" y="-72.562" style="fill:#000;fill-opacity:0;stroke-width:.462756">preCICE</tspan></text></g></svg>