<svg xmlns="http://www.w3.org/2000/svg" xmlns:svg="http://www.w3.org/2000/svg" id="svg8" width="18" height="18" version="1.1" viewBox="0 0 18 18"><metadata id="metadata5"/><g id="layer2" style="display:none"><path style="fill:#f2f2f2;fill-opacity:1;stroke:none;stroke-width:1.92396;stroke-miterlimit:4;stroke-dasharray:none;stroke-opacity:1" id="rect10" d="m 40,492.33331 h 560 v -240 H 40 Z" transform="translate(0,-212.33331)"/></g><g id="layer1" transform="translate(0,-212.33331)"><path style="fill:#999;fill-opacity:1;fill-rule:nonzero;stroke:none;stroke-width:.0301731" id="path20" d="m 16.231468,226.74289 c -0.545465,0.72147 -1.196719,1.35735 -1.931951,1.88648 -0.439615,0.0472 -0.876114,0.12025 -1.307197,0.21864 -1.319026,0.30353 -2.666155,0.47059 -4.0197883,0.49822 -1.3528164,-0.0277 -2.6991288,-0.19469 -4.0173072,-0.49822 -0.4092422,-0.0934 -0.8235364,-0.16399 -1.2407952,-0.211 -0.4073363,-0.29144 -0.7898362,-0.61577 -1.1435366,-0.96987 -0.2883269,-0.28918 -0.5564459,-0.59744 -0.8024813,-0.92295 1.0222886,0.0267 2.0035865,0.13603 2.9784711,0.54029 0.3833469,0.1614 0.9302333,0.50846 1.4911867,0.69784 0.878231,0.30423 1.8019603,0.45766 2.7318609,0.45378 0.9308081,0.004 1.8555059,-0.14906 2.7344319,-0.45378 0.560954,-0.19573 1.102758,-0.53644 1.491187,-0.69784 0.992763,-0.41191 1.986918,-0.51865 3.035919,-0.54159 z"/><path style="fill:#999;fill-opacity:1;fill-rule:nonzero;stroke:none;stroke-width:.0301731" id="path22" d="m 12.373919,212.98397 c -1.012004,-0.0776 -2.103175,-0.1487 -3.4013873,-0.17163 -1.2676282,0.0216 -2.3370487,0.0903 -3.322249,0.16531 2.161106,-0.85912 4.5714243,-0.85912 6.7326203,0 z"/><path style="fill:#999;fill-opacity:1;fill-rule:nonzero;stroke:none;stroke-width:.0301731" id="path24" d="m 16.231468,215.92918 c -1.049001,-0.0228 -2.044336,-0.12709 -3.034618,-0.54147 -0.383347,-0.16143 -0.930233,-0.50845 -1.491187,-0.69913 -0.878594,-0.30435 -1.8027769,-0.45778 -2.7331313,-0.45377 -0.9299006,-0.004 -1.8536298,0.14978 -2.7318609,0.45377 -0.5609534,0.19574 -1.1027576,0.53641 -1.4911867,0.69913 -0.973735,0.40427 -1.9499204,0.50843 -2.9784711,0.5403 0.2462774,-0.3253 0.5142754,-0.63365 0.8023603,-0.92295 0.3520366,-0.35467 0.7333869,-0.67961 1.1398762,-0.97117 0.4172588,-0.0467 0.831432,-0.11707 1.2406742,-0.21102 1.3178154,-0.30318 2.663674,-0.46975 4.0160064,-0.49702 1.3536329,0.0274 2.7008829,0.19432 4.0199089,0.49831 0.430479,0.0985 0.866645,0.17154 1.305866,0.21867 0.7349,0.52949 1.386154,1.16537 1.931981,1.88635 z"/><path style="fill:#999;fill-opacity:1;fill-rule:nonzero;stroke:none;stroke-width:.0302;stroke-miterlimit:4;stroke-dasharray:none;stroke-opacity:1" id="path26" d="m 18,220.42154 h -0.06395 c -1.834935,0.0331 -3.42574,0.11686 -4.763521,-1.07929 -0.434412,-0.38771 -0.709156,-0.97117 -1.102667,-1.34735 -0.833217,-0.79069 -1.943537,-1.2267 -3.0948487,-1.2153 -1.153338,-0.0134 -2.2662601,0.42227 -3.1011408,1.214 -0.3922106,0.38137 -0.6682554,0.95976 -1.1026366,1.34735 -1.3378117,1.19616 -2.9287376,1.11234 -4.76355102,1.08059 H 0 c 0.03000948,-0.30176 0.07562873,-0.60178 0.13673674,-0.89872 0.0618946,-0.30306 0.1400039,-0.60262 0.23384402,-0.89743 0.0985594,-0.30601 0.21363603,-0.60651 0.34492751,-0.90005 1.26254593,0 2.40478173,0.0433 3.48448773,-0.42967 0.8944156,-0.39147 1.4988706,-1.11727 2.2169805,-1.47065 1.6145523,-0.77554 3.4965279,-0.77554 5.1110805,0 0.72062,0.35338 1.326346,1.08047 2.220762,1.47065 1.096283,0.47929 2.255279,0.43355 3.540725,0.42967 0.254082,0.57698 0.446451,1.17912 0.573719,1.79618 0.06111,0.29743 0.106728,0.59778 0.136737,0.90002 z"/><path style="fill:#999;fill-opacity:1;fill-rule:nonzero;stroke:none;stroke-width:.0301731" id="path28" d="m 12.371317,229.68949 c -2.16038,0.85843 -4.5696087,0.85843 -6.730019,0 0.9915834,0.075 2.0611249,0.14367 3.322249,0.16528 1.307197,-0.0165 2.397068,-0.0877 3.40777,-0.16528 z"/><path style="fill:#999;fill-opacity:1;fill-rule:nonzero;stroke:none;stroke-width:.0301731" id="path30" d="m 18,222.24816 c -0.09336,0.93155 -0.333492,1.84274 -0.711757,2.69996 -1.284145,0 -2.444441,-0.0496 -3.539424,0.42958 -0.894416,0.39156 -1.498841,1.11739 -2.216981,1.47077 -1.6145522,0.77542 -3.4965277,0.77542 -5.11108,0 C 5.6988666,226.4938 5.0906302,225.768 4.1962146,225.37899 3.1152078,224.90746 1.9741518,224.94424 0.71172683,224.9493 0.33358319,224.09207 0.09347711,223.18101 0,222.24945 h 0.00768388 c 1.83481342,-0.0331 3.42561832,-0.11695 4.76355102,1.0792 0.4343812,0.38772 0.7091252,0.97114 1.1026366,1.34744 0.8347596,0.79012 1.9465019,1.22487 3.0986602,1.21133 1.1513113,0.0114 2.2616313,-0.42449 3.0947273,-1.21521 0.392211,-0.38133 0.668256,-0.95973 1.102667,-1.34744 1.339082,-1.19615 2.930008,-1.11222 4.763521,-1.07917 z"/></g></svg>