<svg xmlns="http://www.w3.org/2000/svg" xmlns:svg="http://www.w3.org/2000/svg" id="svg8" width="180" height="180" version="1.1" viewBox="0 0 180 180"><metadata id="metadata5"/><g id="layer2" style="display:none"><path style="fill:#f2f2f2;fill-opacity:1;stroke:none;stroke-width:1.92396;stroke-miterlimit:4;stroke-dasharray:none;stroke-opacity:1" id="rect10" d="m 40,492.33331 h 560 v -240 H 40 Z" transform="translate(0,-212.33331)"/></g><g id="layer1" transform="translate(0,-212.33331)"><path style="fill:#000;fill-opacity:1;fill-rule:nonzero;stroke:none;stroke-width:.301731" id="path20" d="m 162.31468,356.42915 c -5.45465,7.21466 -11.96719,13.57342 -19.31951,18.86471 -4.39615,0.47249 -8.76114,1.20259 -13.07197,2.1864 -13.19026,3.03537 -26.66155,4.70594 -40.197883,4.98221 -13.528164,-0.27747 -26.991288,-1.94684 -40.173072,-4.98221 -4.092422,-0.93445 -8.235364,-1.63988 -12.407952,-2.10996 -4.073363,-2.91439 -7.898362,-6.15773 -11.435366,-9.6987 -2.883269,-2.89182 -5.564459,-5.97444 -8.024813,-9.22951 10.222886,0.26694 20.035865,1.36029 29.784711,5.40294 3.833469,1.61399 9.302333,5.08454 14.911867,6.97842 8.78231,3.04229 18.019603,4.57653 27.318609,4.53771 9.308081,0.0433 18.555059,-1.4906 27.344319,-4.53771 5.60954,-1.95738 11.02758,-5.36443 14.91187,-6.97842 9.92763,-4.11909 19.86918,-5.18656 30.35919,-5.41588 z"/><path style="fill:#000;fill-opacity:1;fill-rule:nonzero;stroke:none;stroke-width:.301731" id="path22" d="m 123.73919,218.83991 c -10.12004,-0.77585 -21.03175,-1.48699 -34.013873,-1.71631 -12.676282,0.21638 -23.370487,0.90284 -33.22249,1.65311 21.61106,-8.5912 45.714243,-8.5912 67.326203,0 z"/><path style="fill:#000;fill-opacity:1;fill-rule:nonzero;stroke:none;stroke-width:.301731" id="path24" d="m 162.31468,248.29202 c -10.49001,-0.22812 -20.44336,-1.27091 -30.34618,-5.41468 -3.83347,-1.61429 -9.30233,-5.08454 -14.91187,-6.99136 -8.78594,-3.0435 -18.027769,-4.57774 -27.331313,-4.53771 -9.299006,-0.0376 -18.536298,1.49782 -27.318609,4.53771 -5.609534,1.95738 -11.027576,5.36413 -14.911867,6.99136 -9.73735,4.04265 -19.499204,5.08424 -29.784711,5.40294 2.462774,-3.25296 5.142754,-6.33649 8.023603,-9.22951 3.520366,-3.54669 7.333869,-6.79604 11.398762,-9.71164 4.172588,-0.46677 8.31432,-1.17069 12.406742,-2.11026 13.178154,-3.03176 26.63674,-4.69751 40.160064,-4.97017 13.536329,0.27386 27.008829,1.94323 40.199089,4.98312 4.30479,0.9853 8.66645,1.71541 13.05866,2.18669 7.349,5.29491 13.86154,11.65367 19.31981,18.86351 z"/><path style="fill:#000;fill-opacity:1;fill-rule:nonzero;stroke:none;stroke-width:.302;stroke-miterlimit:4;stroke-dasharray:none;stroke-opacity:1" id="path26" d="m 180,293.21564 h -0.63951 c -18.34935,0.33044 -34.2574,1.16858 -47.63521,-10.79295 -4.34412,-3.87713 -7.09156,-9.71164 -11.02667,-13.47351 -8.33217,-7.90684 -19.43537,-12.26699 -30.948487,-12.15293 -11.53338,-0.13423 -22.662601,4.22262 -31.011408,12.13999 -3.922106,3.81363 -6.682554,9.59758 -11.026366,13.47351 -13.378117,11.96153 -29.287376,11.12339 -47.63551021,10.80589 H 0 c 0.30009479,-3.01762 0.75628728,-6.01779 1.3673674,-8.98726 0.6189455,-3.03056 1.400039,-6.02621 2.3384402,-8.97431 0.9855936,-3.06005 2.1363603,-6.06503 3.4492751,-9.00049 12.6254593,0 24.0478173,0.43277 34.8448773,-4.29665 8.944156,-3.91475 14.988706,-11.17275 22.169805,-14.7065 16.145523,-7.75546 34.965279,-7.75546 51.110805,0 7.2062,3.53375 13.26346,10.80469 22.20762,14.7065 10.96283,4.79292 22.55279,4.33547 35.40725,4.29665 2.54082,5.7698 4.46451,11.7912 5.73719,17.96186 0.61108,2.97429 1.06728,5.97776 1.36737,9.0002 z"/><path style="fill:#000;fill-opacity:1;fill-rule:nonzero;stroke:none;stroke-width:.301731" id="path28" d="m 123.71317,385.8951 c -21.6038,8.58428 -45.696087,8.58428 -67.30019,0 9.915834,0.74997 20.611249,1.43673 33.22249,1.65281 13.07197,-0.16552 23.97068,-0.87696 34.0777,-1.65281 z"/><path style="fill:#000;fill-opacity:1;fill-rule:nonzero;stroke:none;stroke-width:.301731" id="path30" d="m 180,311.48176 c -0.93356,9.31558 -3.33492,18.42743 -7.11757,26.99967 -12.84145,0 -24.44441,-0.49596 -35.39424,4.29575 -8.94416,3.91565 -14.98841,11.17395 -22.16981,14.7077 -16.145522,7.75426 -34.965277,7.75426 -51.1108,0 C 56.988666,353.93819 50.906302,346.68019 41.962146,342.79012 31.152078,338.07485 19.741518,338.44261 7.1172683,338.49317 3.3358319,329.92093 0.93477107,320.81028 0,311.4947 H 0.07683879 C 18.424973,311.16335 34.333022,310.32521 47.712349,322.28674 c 4.343812,3.87713 7.091252,9.71134 11.026366,13.47441 8.347596,7.90112 19.465019,12.24864 30.986602,12.11321 11.513113,0.11406 22.616313,-4.24489 30.947273,-12.15203 3.92211,-3.81333 6.68256,-9.59728 11.02667,-13.47441 13.39082,-11.96153 29.30008,-11.12219 47.63521,-10.79174 z"/></g></svg>